<?xml version="1.0" standalone="no"?><!DOCTYPE svg PUBLIC "-//W3C//DTD SVG 1.1//EN" "http://www.w3.org/Graphics/SVG/1.1/DTD/svg11.dtd">
<svg t="1553757386368" class="icon" style="" viewBox="0 0 1024 1024" version="1.1" 
    xmlns="http://www.w3.org/2000/svg" p-id="2641" 
    xmlns:xlink="http://www.w3.org/1999/xlink" width="128" height="128">
    <defs>
        <style type="text/css"></style>
    </defs>
    <path d="M486.4 486.4V302.08h46.08v184.32h184.32v46.08h-184.32v184.32h-46.08v-184.32H302.08v-46.08h184.32zM209.92 25.6h599.04c101.888 0 184.32 82.432 184.32 184.32v599.04c0 101.888-82.432 184.32-184.32 184.32H209.92c-101.888 0-184.32-82.432-184.32-184.32V209.92C25.6 108.032 108.032 25.6 209.92 25.6z m0 46.08c-76.288 0-138.24 61.952-138.24 138.24v599.04c0 76.288 61.952 138.24 138.24 138.24h599.04c76.288 0 138.24-61.952 138.24-138.24V209.92c0-76.288-61.952-138.24-138.24-138.24H209.92z" p-id="2642" fill="#8a8a8a"></path>
</svg>